<?xml version="1.0" encoding="UTF-8"?>
<svg xmlns="http://www.w3.org/2000/svg" id="Layer_1" data-name="Layer 1" viewBox="0 0 1505 244.61">
  <defs>
    <style>
      .cls-1 {
        fill: #006cb8;
        stroke-width: 0px;
      }
    </style>
  </defs>
  <g>
    <path class="cls-1" d="m201.75,52.27c-14.35-10.2-36.85-15.31-67.49-15.31H0v136.64h135.73c29.51,0,51.6-5.35,66.28-16.06,15.15-11.23,22.74-28.64,22.74-52.24s-7.67-42.18-23-53.03Zm-93.17,86.89h-39.61v-67.75h39.61c29.51,0,44.25,11.29,44.25,33.89s-14.74,33.86-44.25,33.86Z"></path>
    <path class="cls-1" d="m233.84,71.41v102.19h68.95v-102.19h-68.95Z"></path>
    <path class="cls-1" d="m311.08,36.96v34.45h63.81v102.19h68.97v-102.19h63.83v-34.45h-196.62Z"></path>
    <path class="cls-1" d="m717.53,157.54l-2.95-29.87c-1.14-11.36-7.75-18.37-19.8-21.04v-.39c17.92-4.09,26.89-14.47,26.89-31.19,0-7.28-2.29-13.99-6.84-20.11-4.58-6.12-10.19-10.46-16.87-13.03-8.65-3.31-22.44-4.96-41.35-4.96h-145.26v136.64h68.97v-42.09h48.92c11.08,0,17.03,5.42,17.85,16.27,1.13,15.05,2.36,23.65,3.66,25.82h75.33c-5.21-4.98-8.06-10.33-8.55-16.06Zm-88.29-60.48h-48.92v-25.65h47.93c13.37,0,20.05,4.28,20.05,12.83s-6.35,12.83-19.06,12.83Z"></path>
    <path class="cls-1" d="m981.14,36.96l-28.61,79.42h-.49l-28.61-79.42h-97.08v136.64h62.6v-97.6l36.98,97.6h52.73l36.97-97.6v97.6h62.61V36.96h-97.1Z"></path>
    <path class="cls-1" d="m1099.77,36.96v136.64h185.61v-33.3h-116.67v-18.36h108.35v-33.3h-108.35v-18.37h116.67v-33.3h-185.61Z"></path>
    <path class="cls-1" d="m1426.48,102.22l68.23-65.26h-80.94l-26.17,29.86-26.15-29.86h-80.96l4.9,4.69,63.33,60.57-63.33,57.59-15.17,13.79h85.11l32.28-35.2,32.29,35.2h85.11l-78.52-71.38Z"></path>
  </g>
  <g>
    <path class="cls-1" d="m55.95,209.62c-3.97-2.83-10.21-4.24-18.71-4.24H0v37.89h37.64c8.18,0,14.32-1.49,18.39-4.46,4.2-3.12,6.3-7.94,6.3-14.49s-2.13-11.7-6.37-14.7Zm-25.84,24.1h-10.98v-18.79h10.98c8.19,0,12.28,3.14,12.28,9.4s-4.09,9.4-12.28,9.4Z"></path>
    <path class="cls-1" d="m71,205.38v37.89h19.14v-37.89h-19.14Z"></path>
    <path class="cls-1" d="m158.57,238.81l-.81-8.29c-.31-3.14-2.15-5.1-5.48-5.83v-.1c4.96-1.14,7.46-4.03,7.46-8.66,0-2.01-.64-3.87-1.9-5.58-1.28-1.69-2.83-2.89-4.69-3.6-2.4-.93-6.22-1.38-11.47-1.38h-40.28v37.89h19.12v-11.68h13.56c3.08,0,4.73,1.51,4.96,4.51.31,4.18.66,6.57,1.01,7.17h20.9c-1.45-1.38-2.25-2.87-2.38-4.46Zm-24.49-16.78h-13.56v-7.11h13.29c3.72,0,5.56,1.18,5.56,3.56s-1.76,3.55-5.29,3.55Z"></path>
    <path class="cls-1" d="m219.83,214.62v-9.24h-51.49v37.89h51.49v-9.24h-32.35v-5.1h30.05v-9.22h-30.05v-5.1h32.35Z"></path>
    <path class="cls-1" d="m257.39,235.04c-7.87,0-11.8-3.56-11.8-10.71s4.24-10.73,12.75-10.73c5.93,0,9.34,2.23,10.25,6.65h21.56c-1.08-6.63-5.27-11.2-12.55-13.76-4.65-1.63-11.06-2.44-19.26-2.44-9.09,0-16.04.93-20.88,2.77-8.14,3.12-12.21,8.95-12.21,17.51s4.07,14.39,12.21,17.51c4.84,1.84,11.8,2.77,20.88,2.77s16.25-.97,20.83-2.87c5.73-2.44,9.4-6.86,10.98-13.23h-21.56c-1.49,4.36-5.23,6.53-11.2,6.53Z"></path>
    <path class="cls-1" d="m293.68,205.38v9.55h17.71v28.34h19.12v-28.34h17.71v-9.55h-54.54Z"></path>
    <path class="cls-1" d="m378.73,205.38v9.55h17.71v28.34h19.12v-28.34h17.71v-9.55h-54.54Z"></path>
    <path class="cls-1" d="m496.56,238.81l-.81-8.29c-.33-3.14-2.15-5.1-5.5-5.83v-.1c4.98-1.14,7.46-4.03,7.46-8.66,0-2.01-.64-3.87-1.9-5.58-1.26-1.69-2.83-2.89-4.67-3.6-2.4-.93-6.22-1.38-11.47-1.38h-40.3v37.89h19.14v-11.68h13.56c3.06,0,4.73,1.51,4.94,4.51.33,4.18.66,6.57,1.03,7.17h20.88c-1.45-1.38-2.23-2.87-2.36-4.46Zm-24.49-16.78h-13.56v-7.11h13.29c3.7,0,5.56,1.18,5.56,3.56s-1.76,3.55-5.29,3.55Z"></path>
    <path class="cls-1" d="m543.48,205.38h-23.46l-20.61,37.89h20.34l2.03-4.36h19.94l2.03,4.36h20.36l-20.63-37.89Zm-17.49,24.31l5.7-12.84h.14l5.7,12.84h-11.53Z"></path>
    <path class="cls-1" d="m624.21,209.62c-3.99-2.83-10.23-4.24-18.73-4.24h-37.24v37.89h37.64c8.19,0,14.32-1.49,18.39-4.46,4.2-3.12,6.32-7.94,6.32-14.49s-2.13-11.7-6.37-14.7Zm-25.84,24.1h-11v-18.79h11c8.18,0,12.26,3.14,12.26,9.4s-4.09,9.4-12.26,9.4Z"></path>
    <path class="cls-1" d="m690.54,214.62v-9.24h-51.49v37.89h51.49v-9.24h-32.35v-5.1h30.05v-9.22h-30.05v-5.1h32.35Z"></path>
    <path class="cls-1" d="m728.11,205.38v37.89h19.12v-37.89h-19.12Z"></path>
    <path class="cls-1" d="m801.44,205.38l-7.94,22.03h-.14l-7.94-22.03h-26.91v37.89h17.36v-27.06l10.25,27.06h14.63l10.25-27.06v27.06h17.38v-37.89h-26.93Z"></path>
    <path class="cls-1" d="m893.27,208.82c-3.02-2.31-7.83-3.45-14.37-3.45h-39.48v37.89h19.14v-11.78h20.48c12.3,0,18.44-4.3,18.44-12.9,0-4.38-1.39-7.65-4.2-9.76Zm-17.26,12.5c-1.01.62-2.73.93-5.11.93h-12.34v-7.96h12.34c2.38,0,4.11.31,5.11.93,1.03.62,1.53,1.65,1.53,3.1s-.5,2.38-1.53,3Z"></path>
    <path class="cls-1" d="m956.56,206.81c-4.84-1.84-11.82-2.77-20.9-2.77s-16.04.93-20.88,2.77c-8.14,3.12-12.21,8.95-12.21,17.51s4.07,14.39,12.21,17.51c4.84,1.84,11.8,2.77,20.88,2.77s16.06-.93,20.9-2.77c8.14-3.12,12.21-8.95,12.21-17.51s-4.07-14.39-12.21-17.51Zm-20.9,28.23c-8.5,0-12.75-3.56-12.75-10.71s4.24-10.73,12.75-10.73,12.75,3.58,12.75,10.73-4.24,10.71-12.75,10.71Z"></path>
    <path class="cls-1" d="m1034.42,238.81l-.81-8.29c-.33-3.14-2.15-5.1-5.5-5.83v-.1c4.98-1.14,7.46-4.03,7.46-8.66,0-2.01-.64-3.87-1.9-5.58-1.26-1.69-2.83-2.89-4.67-3.6-2.4-.93-6.22-1.38-11.47-1.38h-40.3v37.89h19.14v-11.68h13.56c3.08,0,4.73,1.51,4.94,4.51.33,4.18.66,6.57,1.03,7.17h20.88c-1.43-1.38-2.23-2.87-2.36-4.46Zm-24.49-16.78h-13.56v-7.11h13.29c3.7,0,5.56,1.18,5.56,3.56s-1.76,3.55-5.29,3.55Z"></path>
    <path class="cls-1" d="m1039.23,205.38v9.55h17.71v28.34h19.12v-28.34h17.71v-9.55h-54.54Z"></path>
    <path class="cls-1" d="m1180.71,214.62v-9.24h-51.48v37.89h51.48v-9.24h-32.35v-5.1h30.05v-9.22h-30.05v-5.1h32.35Z"></path>
    <path class="cls-1" d="m1224.94,223.47l18.93-18.09h-22.45l-7.27,8.27-7.25-8.27h-22.45l18.93,18.09-21.78,19.8h23.6l8.95-9.76,8.95,9.76h23.62l-21.78-19.8Z"></path>
    <path class="cls-1" d="m1304.51,208.82c-3.04-2.31-7.83-3.45-14.39-3.45h-39.46v37.89h19.12v-11.78h20.48c12.3,0,18.46-4.3,18.46-12.9,0-4.38-1.41-7.65-4.2-9.76Zm-17.26,12.5c-1.03.62-2.73.93-5.13.93h-12.34v-7.96h12.34c2.4,0,4.11.31,5.13.93,1.01.62,1.51,1.65,1.51,3.1s-.5,2.38-1.51,3Z"></path>
    <path class="cls-1" d="m1367.78,206.81c-4.84-1.84-11.8-2.77-20.88-2.77s-16.06.93-20.9,2.77c-8.14,3.12-12.21,8.95-12.21,17.51s4.07,14.39,12.21,17.51c4.84,1.84,11.82,2.77,20.9,2.77s16.04-.93,20.88-2.77c8.14-3.12,12.21-8.95,12.21-17.51s-4.07-14.39-12.21-17.51Zm-20.88,28.23c-8.5,0-12.75-3.56-12.75-10.71s4.24-10.73,12.75-10.73,12.75,3.58,12.75,10.73-4.24,10.71-12.75,10.71Z"></path>
    <path class="cls-1" d="m1445.64,238.81l-.81-8.29c-.31-3.14-2.15-5.1-5.48-5.83v-.1c4.96-1.14,7.46-4.03,7.46-8.66,0-2.01-.64-3.87-1.9-5.58-1.28-1.69-2.83-2.89-4.69-3.6-2.4-.93-6.22-1.38-11.45-1.38h-40.3v37.89h19.12v-11.68h13.56c3.08,0,4.73,1.51,4.96,4.51.31,4.18.66,6.57,1.01,7.17h20.9c-1.45-1.38-2.25-2.87-2.38-4.46Zm-24.49-16.78h-13.56v-7.11h13.29c3.72,0,5.56,1.18,5.56,3.56s-1.76,3.55-5.29,3.55Z"></path>
    <path class="cls-1" d="m1450.46,205.38v9.55h17.71v28.34h19.12v-28.34h17.71v-9.55h-54.54Z"></path>
  </g>
  <rect class="cls-1" x="233.83" width="68.96" height="52.31"></rect>
  <path class="cls-1" d="m735.13,71.41v102.19h68.95v-102.19h-68.95Z"></path>
  <rect class="cls-1" x="735.12" width="68.96" height="52.31"></rect>
</svg>
